<?xml version="1.0" encoding="utf-8"?>
<!-- Generator: Adobe Illustrator 25.4.0, SVG Export Plug-In . SVG Version: 6.00 Build 0)  -->
<svg version="1.1" id="Camada_1" xmlns="http://www.w3.org/2000/svg" xmlns:xlink="http://www.w3.org/1999/xlink" x="0px" y="0px"
	 viewBox="0 0 271.26 97.4" style="enable-background:new 0 0 271.26 97.4;" xml:space="preserve">
<style type="text/css">
	.st0{fill:#F3E600;}
	.st1{opacity:0.35;fill:#24388D;enable-background:new    ;}
	.st2{opacity:0.81;fill:#24388D;enable-background:new    ;}
	.st3{fill:#24388D;}
	.st4{enable-background:new    ;}
	.st5{fill:#D1D1D1;}
</style>
<g id="Camada_3">
</g>
<g id="background">
	<g id="Camada_4">
	</g>
</g>
<g id="LOGO_00000025430442618270952760000004446189538371737254_">
</g>
<path class="st0" d="M88.9,91.91H8.52c-2.34,0-4.25-2.01-4.25-4.46v-76.9c0-2.46,1.91-4.46,4.25-4.46H88.9
	c2.34,0,4.25,2.01,4.25,4.46v76.9C93.15,89.9,91.24,91.91,88.9,91.91z"/>
<g>
	<path class="st1" d="M78.28,61.21c-1.03,0.01-2.06-0.26-2.82-1.1c-0.15-0.16-0.27-0.34-0.38-0.52c-0.76-1.28-0.46-2.63,0.06-3.73
		l-5.45-5.7l-0.66-0.7c-9.03,4.32-20.4,6.92-30.29,6.98c-14.08,0.09-24.12-4.99-23.52-12.47c0.73-9.12,16.89-19.99,38.54-22.58
		c3.2-0.38,6.2-0.55,8.98-0.54c-2.41-0.73-4.91-1.3-7.51-1.68c-23.04-2.01-43.66,9.71-46.4,23.9c-2.4,14.31,12.5,33.12,38.04,34.37
		c12.54,0.05,25.21-2.74,34.01-8l-0.17-0.55L78.28,61.21z M104.46,69.93l-0.13-3.54c1.78-1.51,2.83-2.82,2.42-3.53
		c-0.02-0.04-0.05-0.07-0.08-0.1c-0.37-0.4-1.27-0.3-2.47,0.13l-0.24-6.36c1.05-0.87,1.87-1.68,2.33-2.37
		c0.38-0.56,0.52-1.03,0.32-1.37c-0.02-0.04-0.05-0.07-0.08-0.1c-0.19-0.21-0.52-0.28-0.95-0.24c-0.47,0.04-1.07,0.2-1.76,0.47
		l-0.16-4.28l-0.13-3.52c5.18-3.81,8.89-7.42,7.91-9.09c-0.04-0.07-0.08-0.13-0.13-0.18c-1.23-1.35-5.8,0.49-11.15,3.52l-6.51-3.78
		c1.11-1.09,1.68-2.01,1.35-2.56c-0.02-0.04-0.05-0.07-0.08-0.1c-0.48-0.52-1.85-0.2-3.65,0.62c-0.21,0.09-0.42,0.2-0.64,0.3
		l-5.3-3.08c0.38-0.4,0.69-0.76,0.91-1.1c0.34-0.52,0.45-0.96,0.27-1.28c-0.02-0.04-0.05-0.07-0.08-0.1
		c-0.35-0.38-1.17-0.31-2.28,0.07c-0.52,0.18-1.1,0.42-1.74,0.72l-7.27-4.23l-1.05-0.6l-0.68,0.46l-1.03,0.66l11.38,11.91l7.33,7.66
		l0.1,0.1c-0.02,0.01-0.03,0.02-0.05,0.04c-3.65,2.51-7.02,5.07-9.31,7.07l-8.55-4.96l-0.06-0.04l-1.1,0.71l-0.62,0.4l6.95,7.27
		c-0.54,0.66-0.9,1.21-1.09,1.66c-0.19,0.45-0.22,0.78-0.1,0.99c0.02,0.03,0.03,0.05,0.06,0.08c0.2,0.22,0.63,0.32,1.29,0.26
		c0.4-0.03,0.88-0.12,1.45-0.27l0.77,2.45l2.28,7.28l0.02,0.05l1.73-1.12l-0.01-0.25l-0.1-2.63l-0.28-7.45c2.18-1,5-2.49,7.97-4.23
		c0.75-0.44,1.51-0.89,2.28-1.35l6.23,19.85l2.08,6.62l1.73-1.12L104.46,69.93z"/>
	<path class="st2" d="M77.52,59.87c-1,0.01-2-0.25-2.75-1.07c-0.14-0.15-0.27-0.32-0.37-0.51c-0.73-1.24-0.45-2.56,0.06-3.63
		l-5.3-5.54l-0.64-0.68c-8.78,4.21-19.84,6.73-29.46,6.79c-13.69,0.09-23.46-4.85-22.87-12.12c0.71-8.87,16.43-19.44,37.48-21.96
		c3.11-0.37,6.03-0.54,8.74-0.53c-2.34-0.71-4.78-1.26-7.31-1.64c-22.41-1.96-42.46,9.44-45.13,23.24
		C7.62,56.14,22.12,74.44,46.96,75.66C59.14,75.7,71.48,73,80.03,67.87l-0.17-0.54L77.52,59.87z M102.99,68.35l-0.13-3.44
		c1.73-1.48,2.76-2.75,2.35-3.43c-0.02-0.04-0.05-0.07-0.08-0.1c-0.35-0.39-1.23-0.29-2.41,0.13l-0.23-6.18
		c1.02-0.85,1.82-1.64,2.27-2.3c0.37-0.55,0.51-1,0.31-1.33c-0.02-0.04-0.05-0.07-0.08-0.1c-0.19-0.2-0.51-0.27-0.93-0.24
		c-0.46,0.04-1.04,0.2-1.71,0.46l-0.16-4.16l-0.13-3.43c5.04-3.71,8.65-7.21,7.69-8.84c-0.03-0.06-0.08-0.12-0.13-0.18
		c-1.19-1.31-5.65,0.48-10.85,3.42l-6.33-3.67c1.07-1.06,1.63-1.96,1.32-2.49c-0.02-0.04-0.05-0.07-0.08-0.1
		c-0.46-0.51-1.8-0.19-3.55,0.6c-0.2,0.09-0.41,0.19-0.62,0.29l-5.16-2.99c0.37-0.38,0.67-0.74,0.88-1.07
		c0.33-0.51,0.44-0.94,0.26-1.24c-0.02-0.04-0.05-0.07-0.08-0.1c-0.34-0.37-1.14-0.3-2.22,0.07c-0.51,0.17-1.07,0.41-1.69,0.7
		l-7.08-4.11l-1.02-0.59l-0.67,0.44l-1,0.65l11.07,11.58l7.12,7.45l0.1,0.1c-0.02,0.01-0.03,0.02-0.05,0.04
		c-3.56,2.45-6.83,4.93-9.05,6.87l-8.31-4.82l-0.06-0.04l-1.07,0.7l-0.6,0.39l6.76,7.07c-0.52,0.64-0.88,1.18-1.06,1.62
		c-0.19,0.43-0.21,0.76-0.09,0.96c0.02,0.03,0.03,0.05,0.06,0.08c0.2,0.21,0.62,0.3,1.25,0.26c0.39-0.03,0.86-0.12,1.41-0.26
		l0.75,2.38l2.22,7.07l0.02,0.05l1.68-1.09l-0.01-0.24l-0.1-2.56l-0.27-7.25c2.13-0.98,4.86-2.43,7.75-4.12
		c0.73-0.43,1.47-0.87,2.21-1.32l6.06,19.31l2.02,6.44l1.68-1.09L102.99,68.35z"/>
	<path class="st3" d="M73.99,59.02c-1,0.01-2-0.25-2.75-1.07c-0.14-0.15-0.27-0.32-0.37-0.51c-0.73-1.24-0.45-2.56,0.06-3.63
		l-5.3-5.54l-0.64-0.68c-8.78,4.21-19.84,6.73-29.46,6.79c-13.69,0.09-23.46-4.85-22.87-12.12c0.71-8.87,16.43-19.44,37.48-21.96
		c3.11-0.37,6.03-0.54,8.74-0.53c-2.34-0.71-4.78-1.26-7.31-1.64C29.15,16.18,9.09,27.58,6.43,41.38
		C4.08,55.3,18.58,73.59,43.42,74.81c12.19,0.05,24.52-2.66,33.07-7.78l-0.17-0.54L73.99,59.02z M99.45,67.52l-0.13-3.44
		c1.73-1.48,2.76-2.75,2.35-3.43c-0.02-0.04-0.05-0.07-0.08-0.1c-0.35-0.39-1.23-0.29-2.41,0.13l-0.23-6.18
		c1.02-0.85,1.82-1.64,2.27-2.3c0.37-0.55,0.51-1,0.31-1.33c-0.02-0.04-0.05-0.07-0.08-0.1c-0.19-0.2-0.51-0.27-0.93-0.24
		c-0.46,0.04-1.04,0.2-1.71,0.46l-0.16-4.16l-0.13-3.43c5.04-3.71,8.65-7.21,7.69-8.84c-0.03-0.06-0.08-0.12-0.13-0.18
		c-1.19-1.31-5.65,0.48-10.85,3.42l-6.33-3.67c1.07-1.06,1.63-1.96,1.32-2.49c-0.02-0.04-0.05-0.07-0.08-0.1
		c-0.46-0.51-1.8-0.19-3.55,0.6c-0.2,0.09-0.41,0.19-0.62,0.29l-5.16-2.99c0.37-0.38,0.67-0.74,0.88-1.07
		c0.33-0.51,0.44-0.94,0.26-1.24c-0.02-0.04-0.05-0.07-0.08-0.1c-0.34-0.37-1.14-0.3-2.22,0.07c-0.51,0.17-1.07,0.41-1.69,0.7
		l-7.08-4.11l-1.02-0.59l-0.67,0.44l-1,0.65L79.3,35.77l7.12,7.45l0.1,0.1c-0.02,0.01-0.03,0.02-0.05,0.04
		c-3.56,2.45-6.83,4.93-9.05,6.87l-8.31-4.82l-0.06-0.04l-1.07,0.7l-0.6,0.39l6.76,7.07c-0.52,0.64-0.88,1.18-1.06,1.62
		c-0.19,0.43-0.21,0.76-0.09,0.96c0.02,0.03,0.03,0.05,0.06,0.08c0.2,0.21,0.62,0.3,1.25,0.26c0.39-0.03,0.86-0.12,1.41-0.26
		l0.75,2.38l2.22,7.07l0.02,0.05l1.68-1.09l-0.01-0.24l-0.1-2.56l-0.27-7.25c2.13-0.98,4.86-2.43,7.75-4.12
		c0.73-0.43,1.47-0.87,2.21-1.32l6.06,19.31L98,74.88l1.68-1.09L99.45,67.52z"/>
</g>
<g>
	<g class="st4">
		<path class="st5" d="M111.58,49.47h3.41l3.98,14.07c0.87,3.06,1.48,5.57,2.39,8.59h0.15c0.91-3.02,1.55-5.53,2.39-8.59l3.98-14.07
			h3.26l-7.88,26.08h-3.71L111.58,49.47z"/>
		<path class="st5" d="M134.53,62.39c0-8.43,3.94-13.4,9.54-13.4c5.61,0,9.54,4.97,9.54,13.4c0,8.55-3.94,13.64-9.54,13.64
			C138.47,76.03,134.53,70.94,134.53,62.39z M150.32,62.39c0-6.56-2.5-10.46-6.25-10.46c-3.75,0-6.25,3.9-6.25,10.46
			c0,6.68,2.5,10.7,6.25,10.7C147.82,73.09,150.32,69.07,150.32,62.39z"/>
		<path class="st5" d="M159.75,49.47h15.38v2.82h-12.19v8.15h10.3v2.82h-10.3v9.46h12.57v2.82h-15.75V49.47z"/>
		<path class="st5" d="M180.88,49.47h3.86l3.48,11.13l1.21,4.21h0.15l1.17-4.21l3.52-11.13h3.86v26.08h-3.03V62.51
			c0-2.54,0.38-7,0.53-9.22h-0.11l-1.4,5.09l-3.56,10.26h-2.27l-3.48-10.26l-1.44-5.09h-0.08c0.23,2.23,0.53,6.68,0.53,9.22v13.04
			h-2.95V49.47z"/>
		<path class="st5" d="M210.41,49.47h3.64l8.37,26.08h-3.41L214.73,61c-0.87-2.9-1.7-5.77-2.46-8.79h-0.15
			c-0.8,3.02-1.59,5.88-2.46,8.79l-4.36,14.55h-3.26L210.41,49.47z M206.48,64.94h11.4v2.7h-11.4V64.94z"/>
		<path class="st5" d="M227.19,72.73h6.17V52.29h-6.17v-2.82h15.53v2.82h-6.17v20.44h6.17v2.82h-15.53V72.73z"/>
		<path class="st5" d="M248.85,72.17l1.89-2.31c1.89,1.95,4.47,3.22,7.27,3.22c3.41,0,5.38-1.71,5.38-4.1
			c0-2.78-1.93-3.58-4.43-4.69l-3.6-1.67c-2.46-1.03-5.34-2.86-5.34-6.72c0-3.98,3.41-6.92,8.14-6.92c3.11,0,5.83,1.31,7.65,3.22
			l-1.67,2.15c-1.63-1.51-3.52-2.43-6.1-2.43c-2.88,0-4.81,1.43-4.81,3.78c0,2.5,2.31,3.42,4.43,4.29l3.48,1.63
			c3.07,1.27,5.49,3.1,5.49,6.96c0,4.13-3.33,7.43-8.79,7.43C254.23,76.03,251.08,74.52,248.85,72.17z"/>
	</g>
</g>
</svg>
